<svg xmlns="http://www.w3.org/2000/svg" viewBox="0 0 24 24" fill="currentColor">
  <path d="M10.325 2.317a1 1 0 0 1 1.35-.447l1.95.975a8.1 8.1 0 0 1 1.758.99l2.101-.35a1 1 0 0 1 1.14.796l.39 2.145c.335.383.64.793.91 1.225l1.988.795a1 1 0 0 1 .53 1.395l-1 1.732c.06.483.06.977 0 1.46l1 1.732a1 1 0 0 1-.53 1.395l-1.988.795a8.096 8.096 0 0 1-.91 1.225l-.39 2.145a1 1 0 0 1-1.14.796l-2.101-.35a8.1 8.1 0 0 1-1.758.99l-1.95.975a1 1 0 0 1-1.35-.447l-1.05-1.819a8.053 8.053 0 0 1-1.98 0l-1.05 1.819a1 1 0 0 1-1.35.447l-1.95-.975a8.1 8.1 0 0 1-1.758-.99l-2.101.35a1 1 0 0 1-1.14-.796l-.39-2.145a8.096 8.096 0 0 1-.91-1.225l-1.988-.795a1 1 0 0 1-.53-1.395l1-1.732a8.482 8.482 0 0 1 0-1.46l-1-1.732a1 1 0 0 1 .53-1.395l1.988-.795c.27-.432.575-.842.91-1.225l.39-2.145a1 1 0 0 1 1.14-.796l2.101.35c.563-.38 1.15-.71 1.758-.99l1.95-.975a1 1 0 0 1 1.35.447l1.05 1.819c.656-.08 1.324-.08 1.98 0l1.05-1.819zM12 9a3 3 0 1 0 0 6 3 3 0 0 0 0-6z"/>
</svg>
