<svg xmlns="http://www.w3.org/2000/svg" viewBox="0 0 24 24" fill="currentColor">
  <path d="M12 2.2c3.2 0 3.6 0 4.9.1 1.2.1 1.9.2 2.4.4.6.2 1 .4 1.4.8.4.4.6.8.8 1.4.2.5.3 1.2.4 2.4.1 1.3.1 1.7.1 4.9s0 3.6-.1 4.9c-.1 1.2-.2 1.9-.4 2.4-.2.6-.4 1-.8 1.4-.4.4-.8.6-1.4.8-.5.2-1.2.3-2.4.4-1.3.1-1.7.1-4.9.1s-3.6 0-4.9-.1c-1.2-.1-1.9-.2-2.4-.4-.6-.2-1-.4-1.4-.8-.4-.4-.6-.8-.8-1.4-.2-.5-.3-1.2-.4-2.4C2.2 15.6 2.2 15.2 2.2 12s0-3.6.1-4.9c.1-1.2.2-1.9.4-2.4.2-.6.4-1 .8-1.4.4-.4.8-.6 1.4-.8.5-.2 1.2-.3 2.4-.4C8.4 2.2 8.8 2.2 12 2.2zm0 2c-3.1 0-3.5 0-4.7.1-1 .1-1.5.2-1.9.3-.5.2-.8.4-1.1.6-.3.3-.5.6-.6 1.1-.1.4-.2.9-.3 1.9C3.2 10.5 3.2 10.9 3.2 12s0 1.5.1 2.7c.1 1 .2 1.5.3 1.9.2.5.4.8.6 1.1.3.3.6.5 1.1.6.4.1.9.2 1.9.3 1.2.1 1.6.1 4.7.1s3.5 0 4.7-.1c1-.1 1.5-.2 1.9-.3.5-.2.8-.4 1.1-.6.3-.3.5-.6.6-1.1.1-.4.2-.9.3-1.9.1-1.2.1-1.6.1-4.7s0-3.5-.1-4.7c-.1-1-.2-1.5-.3-1.9-.2-.5-.4-.8-.6-1.1-.3-.3-.6-.5-1.1-.6-.4-.1-.9-.2-1.9-.3-1.2-.1-1.6-.1-4.7-.1zm0 2.8a4.9 4.9 0 1 1 0 9.8 4.9 4.9 0 0 1 0-9.8zm0 2a2.9 2.9 0 1 0 0 5.8 2.9 2.9 0 0 0 0-5.8zM17.5 6a1.2 1.2 0 1 1 0 2.4 1.2 1.2 0 0 1 0-2.4z"/>
</svg>
